<?xml version="1.0" encoding="utf-8"?>
<svg xmlns="http://www.w3.org/2000/svg" height="1024" width="1024" viewBox="0 0 1024 1024">
  <g>
    <path id="path1" transform="rotate(0,512,512) translate(2.52804565429688,0) scale(32,32)  " fill="#F77C0C" d="M26.84801,26.411987L31.841998,26.411987 31.841998,31.915009 26.84801,31.915009z M10.497003,26.411987L18.709003,26.411987 18.709003,31.915009 10.497003,31.915009z M20.052005,18.708984L25.386005,18.708984 25.386005,31.915009 20.052005,31.915009z M10.497003,14.221985L18.709003,14.221985 18.709003,25.057983 10.497003,25.057983z M20.052005,9.5660095L25.386005,9.5660095 25.386005,17.18399 20.052005,17.18399z M26.84801,7.07901L31.841998,7.07901 31.841998,25.057983 26.84801,25.057983z M10.497003,1.9949951L18.709003,1.9949951 18.709003,12.686005 10.497003,12.686005z M0,0L9.2280055,0 9.2280055,32 0,32z" />
  </g>
</svg>

