<?xml version="1.0" encoding="utf-8"?>
<svg xmlns="http://www.w3.org/2000/svg" height="1024" width="1024" viewBox="0 0 1024 1024">
  <g>
    <path id="path1" transform="rotate(0,512,512) translate(0,367.984125146791) scale(31.999980926525,31.999980926525)  " fill="#C50909" d="M3.7062584,8.2670066C3.733492,8.2671082 3.7606766,8.2678425 3.7877991,8.2693431 3.901287,8.2763455 4.015025,8.2818472 4.1286067,8.288552 4.1853977,8.2919052 4.2421497,8.2955587 4.298812,8.2998507 4.3554736,8.3041437 4.4120458,8.3090746 4.4684774,8.3149831 4.5249089,8.3208911 4.5812,8.3277762 4.6372992,8.3359764 4.6933991,8.3441761 4.7493073,8.3536909 4.8049735,8.3648584 4.8606395,8.3760259 4.9160632,8.3888466 4.9711941,8.4036582 5.0263251,8.4184692 5.081163,8.4352715 5.1356574,8.4544027 5.1519057,8.4601548 5.1679665,8.4660313 5.1836835,8.4723928 5.1994008,8.4787543 5.214774,8.4856002 5.2296478,8.4932902 5.2593945,8.5086701 5.2871417,8.527426 5.311639,8.5524342 5.340886,8.5824435 5.3584622,8.6078112 5.364051,8.6313322 5.3659145,8.6391728 5.3664457,8.6468079 5.3656331,8.6543415 5.3648208,8.661875 5.3626648,8.6693075 5.3591534,8.6767409 5.3556422,8.6841753 5.3507754,8.6916111 5.3445417,8.6991527 5.338308,8.7066944 5.3307072,8.7143414 5.3217274,8.7221973 5.3127483,8.7300532 5.30239,8.7381184 5.2906414,8.746496 5.2663938,8.7637513 5.2411464,8.778569 5.215149,8.7915266 5.1891519,8.8044832 5.1624047,8.8155806 5.1351572,8.8253963 5.1079103,8.835212 5.0801631,8.8437459 5.0521659,8.8515766 5.0241691,8.8594072 4.995922,8.8665345 4.9676746,8.8735368 4.9111809,8.8877914 4.8543743,8.900233 4.7973026,8.9111273 4.7402302,8.9220212 4.6828924,8.9313681 4.6253358,8.9394333 4.5677794,8.9474981 4.5100044,8.9542816 4.452057,8.9600494 4.3941103,8.9658167 4.3359913,8.9705679 4.2777473,8.9745696 4.2574996,8.9758198 4.2372516,8.9773829 4.2165035,8.978977 4.1957561,8.9805715 4.1745085,8.982197 4.1522607,8.9835722 4.1300131,8.9849479 4.1067654,8.9860733 4.0820178,8.9866669 4.0572706,8.9872611 4.0310234,8.987323 4.0027765,8.986573 3.9562811,8.9933255 3.9078487,8.9973266 3.8579791,8.9993432 3.8081093,9.0013592 3.7568022,9.0013907 3.7045575,9.0002024 3.6523131,8.9990146 3.5991311,8.996608 3.5455118,8.993747 3.4918923,8.9908874 3.4378356,8.9875739 3.383841,8.9845726 3.3013498,8.9803212 3.2188585,8.9753196 3.1365856,8.9685204 3.0543133,8.9617217 2.9722594,8.9531252 2.8906428,8.9416835 2.8498347,8.9359634 2.8091359,8.9295313 2.7685734,8.9222581 2.7280115,8.914984 2.6875861,8.9068682 2.6473251,8.8977792 2.6070634,8.8886902 2.5669661,8.8786285 2.52706,8.8674629 2.487154,8.8562973 2.4474394,8.8440278 2.4079436,8.8305233 2.3729473,8.8185194 2.3389509,8.8045151 2.3062042,8.7882597 2.2734577,8.7720044 2.241961,8.7534983 2.211964,8.7324917 2.1872167,8.7144859 2.1710465,8.693104 2.1636646,8.6704032 2.1612039,8.6628363 2.1597196,8.655123 2.15922,8.6473396 2.1587197,8.6395557 2.159204,8.6317017 2.1606806,8.623853 2.1621568,8.6160052 2.1646253,8.6081626 2.1680939,8.6004026 2.1715621,8.5926421 2.1760304,8.584964 2.1815064,8.5774443 2.1869822,8.5699241 2.1934659,8.5625622 2.2009652,8.5554349 2.2115892,8.5453064 2.2226349,8.5359442 2.2340439,8.5272582 2.2454527,8.5185716 2.2572249,8.5105612 2.2693017,8.5031369 2.2934556,8.4882882 2.3188279,8.4757845 2.3449501,8.464906 2.3710724,8.4540274 2.3979447,8.4447744 2.4250984,8.4364283 2.4522514,8.4280818 2.4796861,8.4206417 2.5069332,8.4133894 2.5581779,8.4001353 2.60961,8.3882563 2.6612454,8.3776276 2.7128803,8.3669994 2.7647187,8.3576214 2.816776,8.3493688 2.8688327,8.3411162 2.9211085,8.3339889 2.9736187,8.327862 3.0261288,8.3217351 3.0788732,8.3166087 3.1318678,8.3123572 3.1863619,8.3078558 3.2410437,8.3021662 3.2958035,8.2963521L3.3072309,8.2951877 3.4190989,8.2835066 3.4338498,8.2822831 3.4602084,8.2795966 3.4931097,8.2773669 3.5629078,8.2715766 3.5924474,8.2706349 3.6244255,8.2684677C3.6517427,8.2674363,3.6790251,8.2669051,3.7062584,8.2670066z M4.720415,6.3692381C4.5262295,6.3790019 4.4164764,6.5475638 4.4183651,6.6994946 4.4183646,6.8884728 4.5673622,7.0405219 4.7543877,7.0424755 4.9383909,7.0435131 5.0923935,6.8895104 5.092394,6.7024858 5.0923935,6.5134466 4.9494084,6.3804414 4.7603692,6.3694546 4.7466811,6.3686421 4.7333602,6.3685873 4.720415,6.3692381z M24.555186,2.3965601C24.153211,2.4175608 23.873225,2.6235681 23.727235,2.9965813 23.629239,3.2465898 23.608241,3.509599 23.61324,3.7756083 23.61324,3.8636113 23.608241,3.9516144 23.615241,4.0396174 23.637238,4.3236275 23.698235,4.599637 23.840228,4.8516457 24.100213,5.3166621 24.669181,5.4576669 25.107156,5.1666565 25.305144,5.0356522 25.414138,4.8436456 25.480134,4.6266382 25.597127,4.2456248 25.617127,3.854611 25.573129,3.460597 25.544131,3.2085885 25.468135,2.9695801 25.315144,2.760573 25.129155,2.5055639 24.868169,2.3795595 24.555186,2.3965601z M11.172248,2.3817662C11.11362,2.3812662 11.054868,2.3850164 10.996364,2.3905166 10.746352,2.4145178 10.512341,2.4915214 10.295331,2.6165271 10.260329,2.6365282 10.230328,2.6585292 10.231328,2.7085314 10.232328,3.444566 10.232328,4.1796005 10.231328,4.9156349 10.231328,4.9476364 10.239328,4.9686375 10.27033,4.9866385 10.457339,5.0976436 10.653348,5.191648 10.867358,5.2416501 11.390383,5.361656 11.790401,5.1386454 11.958409,4.638622 12.045414,4.38061 12.058414,4.1145976 12.065414,3.8635857 12.057414,3.5475708 12.040414,3.2485569 11.937408,2.9615433 11.836404,2.6795302 11.667395,2.46152 11.347381,2.398517 11.289378,2.3870165 11.230876,2.3822663 11.172248,2.3817662z M5.8484596,2.0861341C5.9094609,2.0883927,5.9705271,2.0886483,6.0316256,2.0882294L6.1605448,2.086858 6.2152642,2.0862057C6.276389,2.0857057,6.3374513,2.0858933,6.3984197,2.088144L6.464301,2.0918181 6.4899668,2.0932052C6.5204958,2.0954615,6.5510129,2.0983799,6.5815133,2.1021258L6.6634506,2.1164963 6.6758727,2.1186111 6.749833,2.1411412 6.7662691,2.146136C6.8247713,2.1686442 6.8795236,2.2001557 6.9285229,2.2441647 7.1045612,2.3611779 7.1885513,2.5391689 7.2585639,2.726194 7.3075479,2.8231854 7.3435615,2.9242057 7.3555554,3.0321844 7.3945597,3.2072455 7.4485797,3.3802313 7.4475726,3.5622503 7.4865769,3.6422735 7.4825786,3.7272404 7.4845628,3.8122685 7.4855698,3.8842949 7.4845628,3.9562604 7.4835862,4.0282868 7.4895676,4.1852803 7.453585,4.3383062 7.4315804,4.4932852 7.3665732,4.7893267 7.2695512,5.0743809 7.108559,5.3343472 6.9585241,5.5774066 6.7325252,5.689414 6.4475011,5.6914275 6.2184809,5.6933818 5.74045,5.6864233 5.7304395,5.6833713 5.5334345,5.6833713 5.3374366,5.6833713 5.140401,5.6833713 4.906406,5.6833713 4.6713735,5.6833713 4.4363719,5.6833713 4.2293559,5.6833713 4.0223404,5.6864233 3.8153245,5.6844089 3.7553229,5.6833713 3.728313,5.7013779 3.7363093,5.761379 3.7383235,5.7823772 3.7393001,5.8044124 3.7363093,5.8254099 3.7243149,5.9004273 3.7573067,5.9284446 3.8303096,5.9203868L4.3873569,5.9203868C4.6113716,5.9203873 4.8353866,5.9203873 5.0594019,5.9203868 5.2054082,5.9014041 5.353429,5.9164197 5.4994355,5.9123912 5.5344416,5.9114146 5.5484504,5.9284446 5.5474428,5.9614048 5.5404235,6.2174051 5.5694479,6.4754798 5.5314511,6.7304418 5.4984285,6.9545176 5.3634394,7.1204836 5.1794058,7.249521 4.936407,7.4185393 4.6563882,7.4965475 4.3703572,7.5585024 3.8963243,7.6615374 3.4242752,7.6435306 2.9552476,7.5255415 2.9342499,7.5205362 2.9142595,7.5105255 2.8942387,7.5025294 2.7442339,7.4685304 2.6012183,7.4204924 2.4692206,7.3405306 2.3562057,7.2905395 2.2561925,7.2235181 2.174186,7.1314709 2.0561965,7.0324647 1.9871913,6.9064796 1.9571902,6.7584589 1.9191933,6.636441 1.9331714,6.5114324 1.935186,6.3884375 1.9351857,6.2064183 1.9351857,6.0243986 1.935186,5.8423786 1.9341785,5.5083711 1.9211771,5.1743634 1.9361931,4.8403561 1.9531923,4.4423175 2.266203,4.1012902 2.6652179,4.0182766 2.7282416,4.0052751 2.7942558,3.9992932 2.8592321,3.9982551 3.4102972,3.9972789 3.9613312,3.9972789 4.5113579,3.9982551 4.5253669,3.9982555 4.5383683,4.0013075 4.5523769,4.0032605 4.7353734,4.0013075 4.9144024,3.9852542 5.0833896,3.9052923 5.4150637,3.7494969 5.6242021,3.5034126 5.7268966,3.1769766L5.7642583,3.0328791 5.7654113,2.6618286 5.7655715,2.6006889C5.7659491,2.4569336 5.7659491,2.3131704 5.7644385,2.1691477 5.7644385,2.1533997 5.7656268,2.1402114 5.7684253,2.1293185L5.7757772,2.1152818 5.7817644,2.1035888 5.7820715,2.1032631C5.7949508,2.0901323,5.815956,2.0851271,5.8484596,2.0861341z M28.433066,1.9903637C28.471803,1.9896861 28.510795,1.9898111 28.550044,1.9907485 28.588668,1.9916235 28.626996,1.9935609 28.664967,1.9966818 28.702939,1.9998027 28.740556,2.0041071 28.777758,2.0097162 28.814961,2.0153252 28.85175,2.0222389 28.888064,2.0305783 29.069644,2.0722749 29.239407,2.1496139 29.390031,2.2777312 29.511279,2.3802252 29.598542,2.4987338 29.646941,2.63521 29.656619,2.6625054 29.664744,2.6905193 29.671275,2.7192674 29.677808,2.7480158 29.682744,2.7774985 29.686049,2.8077308 29.689353,2.8379637 29.691026,2.8689462 29.691026,2.9006941 29.691026,3.7806419 29.691026,4.6605895 29.692025,5.5405362 29.692025,5.5795345 29.684714,5.5994084 29.657855,5.6064856 29.648902,5.6088455 29.637776,5.6097829 29.624026,5.6095326 29.474028,5.6065331 29.324031,5.6045332 29.174033,5.610533 29.103036,5.6125326 29.090035,5.5875342 29.090035,5.5235379 29.092034,4.7665832 29.091035,4.0096282 29.092034,3.2526735 29.092034,3.2024264 29.090472,3.1525544 29.086127,3.1034009 29.083957,3.0788243 29.08109,3.0544274 29.077374,3.0302532 29.073659,3.0060787 29.069096,2.982127 29.063535,2.958441 29.057973,2.9347548 29.05141,2.9113343 29.043696,2.8882224 29.035981,2.8651105 29.027114,2.8423072 29.016942,2.8198553 29.00677,2.7974036 28.995293,2.7753034 28.982362,2.7535979 28.969428,2.7318919 28.955037,2.7105807 28.939038,2.6897069 28.862914,2.5903378 28.775119,2.5189514 28.678393,2.4695892 28.646151,2.453135 28.612918,2.439128 28.578793,2.4273476 28.442296,2.3802253 28.291547,2.368726 28.13305,2.3787254 28.010552,2.3867249 27.893803,2.4114735 27.781682,2.4499711 27.75365,2.4595956 27.725909,2.4700793 27.698438,2.4813756 27.616027,2.5152642 27.536059,2.5564648 27.45806,2.6037121 27.433061,2.6187111 27.41631,2.6347102 27.405812,2.6542092 27.400561,2.6639584 27.396874,2.6745828 27.3945,2.6863948L27.391063,2.7257047 27.392188,4.1176219C27.392312,4.581594 27.392562,5.0455663 27.394061,5.5095379 27.394061,5.5620358 27.385077,5.5899246 27.358563,5.6024826 27.353261,5.6049938 27.347257,5.6068923 27.340484,5.6082513 27.326938,5.6109703 27.310313,5.6115327 27.290063,5.610533 27.148066,5.6035333 27.006068,5.6055331 26.86407,5.610533 26.83257,5.6115327 26.813571,5.6067829 26.802571,5.5945337 26.797072,5.5884092 26.793572,5.5804095 26.791509,5.5703166 26.789447,5.5602233 26.788821,5.5480366 26.789071,5.5335376 26.791072,5.0485663 26.79007,4.5645952 26.79007,4.080624 26.79007,3.6046524 26.791072,3.1286807 26.789071,2.6527091 26.788571,2.6237108 26.793321,2.6012121 26.804072,2.5818386 26.814822,2.5624644 26.831571,2.5462153 26.855071,2.529716 26.91425,2.487414 26.974212,2.4474189 27.03497,2.4097952L27.041289,2.4061788 27.047131,2.4023021 27.104346,2.3700913 27.219651,2.3041023 27.232657,2.2978528 27.244643,2.2911056 27.310227,2.2605818 27.409203,2.2130239 27.42929,2.2051676 27.447707,2.1965959 27.514392,2.1718819 27.603715,2.1369455 27.631289,2.1285593 27.656432,2.119241C27.691697,2.1078041,27.727202,2.0971016,27.762952,2.0871431L27.79144,2.0798518 27.803269,2.0762546 27.818902,2.0728237 27.870923,2.0595104C27.907159,2.0510496,27.943637,2.0433431,27.980365,2.0364L27.999268,2.0332419 28.007954,2.0313365 28.023114,2.0292589 28.091285,2.017872C28.128507,2.012466,28.165978,2.0078335,28.2037,2.0039841L28.213155,2.0032217 28.217858,2.0025774 28.228944,2.001948 28.317624,1.9947955C28.355851,1.9925219,28.394332,1.9910415,28.433066,1.9903637z M11.231391,1.9899746C11.345302,1.9894823 11.459636,1.9974983 11.574391,2.0154993 11.911407,2.0675015 12.169419,2.2405096 12.365429,2.5105223 12.581439,2.8105363 12.688444,3.1495522 12.731446,3.5105691 12.779448,3.9155881 12.768448,4.3176069 12.623441,4.7056253 12.471434,5.108644 12.224422,5.4376595 11.799402,5.597667 11.421384,5.7406735 11.040366,5.7146723 10.664348,5.577666 10.539343,5.5326638 10.419337,5.4756613 10.303331,5.4096582 10.283331,5.3976576 10.26633,5.3776567 10.232328,5.3826568L10.232328,5.4686611C10.232328,6.1026905 10.230328,6.7367203 10.233328,7.3707502 10.234328,7.4487536 10.212327,7.4517539 10.148324,7.4277527 10.005318,7.37375 9.8633107,7.3207476 9.7173036,7.2767456 9.6483005,7.2557447 9.6272997,7.2267435 9.6272997,7.1547401 9.6302994,5.7846756 9.6292995,4.4156115 9.6292995,3.0455472 9.6292995,2.930542 9.6332997,2.8155366 9.6272997,2.7005311 9.6242994,2.6335281 9.6453003,2.5855258 9.6933025,2.5385236 9.9653157,2.2755113 10.301331,2.1365048 10.665349,2.0565011 10.852857,2.0152491 11.041538,1.9907948 11.231391,1.9899746z M24.597394,1.9879891C24.657479,1.9882646 24.718428,1.991171 24.780175,1.9965459 25.617127,2.0715488 26.108098,2.736572 26.214093,3.3785944 26.305087,3.9266136 26.245091,4.4576321 25.944108,4.940649 25.592128,5.5066686 25.064158,5.7366767 24.403195,5.6696742 23.654239,5.5936718 23.25326,5.1246552 23.043273,4.4606318 22.974276,4.2426245 22.952277,4.0156167 22.955277,3.8476107 22.952277,3.2655904 23.107268,2.8025743 23.486247,2.4245609 23.798606,2.1130502 24.176803,1.9860614 24.597394,1.9879891z M14.004211,1.9879629L14.004211,2.0889589 14.004211,4.3918724C14.004211,4.4798691 14.007211,4.5688658 14.026209,4.6548626 14.054706,4.7849827 14.113998,4.8989317 14.197282,4.9921217 14.225042,5.023185 14.255469,5.0519416 14.288311,5.0782218 14.321152,5.104502 14.356406,5.1283059 14.393823,5.1494632 14.431239,5.1706207 14.470817,5.1891317 14.512306,5.2048264 14.553794,5.220521 14.597193,5.2333994 14.642249,5.2432914 14.664778,5.2482378 14.68772,5.2524376 14.711046,5.2558689 14.734371,5.2593009 14.75808,5.2619648 14.782141,5.2638402 14.828636,5.2674649 14.874367,5.2686834 14.919396,5.2676735 14.964425,5.2666638 15.008753,5.2634256 15.052444,5.2581363 15.096136,5.2528479 15.139191,5.2455084 15.181673,5.2362957 15.394085,5.190233 15.592193,5.0973461 15.78405,4.9798498 15.816297,4.9603512 15.820985,4.9357896 15.821312,4.9095404 15.821422,4.9007909 15.821047,4.8918538 15.821047,4.8828542 15.821047,4.106883 15.821047,3.3309124 15.821047,2.5559411L15.821671,2.3509491 15.820046,2.1459567C15.819547,2.132207 15.820234,2.1207075 15.822452,2.1112082 15.824671,2.1017085 15.828421,2.0942088 15.834045,2.0884587 15.845295,2.0769594 15.864043,2.0724595 15.893041,2.0729591 16.049026,2.0769594 16.204012,2.0759594 16.359998,2.0739595 16.384496,2.0734595 16.400744,2.0767094 16.410744,2.0863339 16.415743,2.0911464 16.41918,2.0975524 16.421306,2.10588 16.423429,2.1142081 16.424242,2.1244578 16.423992,2.1369574 16.422992,2.7014361 16.422992,3.2656648 16.422617,3.8298938 16.422242,4.3941224 16.421492,4.9583514 16.418993,5.5228298 16.418242,5.7253222 16.401182,5.9272523 16.369076,6.1273544 16.358374,6.1940548 16.346,6.2605522 16.332001,6.3267996 16.322376,6.373173 16.310456,6.4177339 16.296315,6.4605544 16.282173,6.5033748 16.265811,6.5444553 16.247306,6.5838678 16.228799,6.6232808 16.208149,6.6610253 16.18543,6.6971743 16.162711,6.7333233 16.137924,6.7678769 16.111146,6.8009064 16.084367,6.8339369 16.055596,6.8654435 16.024909,6.895499 15.963536,6.95561 15.894499,7.0099165 15.818408,7.0589964 15.780363,7.0835369 15.740554,7.1067703 15.699057,7.1287696 15.652937,7.1530187 15.606378,7.1756899 15.559399,7.1968353 15.512419,7.2179811 15.465016,7.2376015 15.417209,7.2557495 15.3694,7.2738969 15.321186,7.2905719 15.272581,7.3058274 15.223976,7.3210828 15.17498,7.3349183 15.125609,7.3473866 15.076239,7.3598545 15.026494,7.3709557 14.976389,7.3807428 14.926284,7.3905294 14.87582,7.3990014 14.825012,7.4062121 14.774204,7.4134228 14.723052,7.4193718 14.671573,7.4241116 14.620093,7.4288518 14.568285,7.4323828 14.516165,7.4347579 14.505416,7.4352582 14.496041,7.4350708 14.48787,7.4338362 14.479699,7.4326022 14.472731,7.430321 14.466794,7.4266336 14.460857,7.4229462 14.455951,7.4178526 14.451904,7.4109933 14.447858,7.4041345 14.444671,7.39551 14.442171,7.3847601 14.432172,7.3402617 14.421924,7.2960131 14.410675,7.2520149 14.399425,7.2080166 14.387176,7.1642683 14.373177,7.1207697 14.369178,7.1085203 14.367178,7.0988333 14.367131,7.091099 14.367084,7.0833652 14.368991,7.077584 14.372803,7.0731466 14.376614,7.0687096 14.382333,7.0656159 14.389911,7.0632565 14.397488,7.0608971 14.406924,7.0592721 14.418174,7.0577724 14.470169,7.0510228 14.522164,7.0441477 14.574081,7.0367577 14.625998,7.0293672 14.677837,7.0214612 14.729521,7.0126488 14.781203,7.0038369 14.83273,6.9941185 14.884022,6.9831035 14.935314,6.9720881 14.986373,6.9597762 15.037118,6.9457767 15.070989,6.9366519 15.104424,6.9267929 15.137304,6.9160454 15.170184,6.9052975 15.202509,6.8936613 15.234162,6.8809822 15.265816,6.8683031 15.296798,6.8545806 15.32699,6.8396618 15.357182,6.8247421 15.386586,6.8086255 15.415083,6.7911575 15.443581,6.7736895 15.471172,6.7548697 15.49774,6.7345445 15.524308,6.7142189 15.549852,6.6923878 15.574257,6.6688964 15.59866,6.6454051 15.621924,6.6202538 15.64393,6.5932882 15.665936,6.5663221 15.686684,6.5375421 15.706057,6.5067933 15.716806,6.4894187 15.726524,6.4717476 15.735338,6.4538205 15.744152,6.4358933 15.752061,6.4177105 15.759193,6.3993127 15.766325,6.3809149 15.77268,6.3623025 15.778384,6.3435161 15.806908,6.249584 15.819172,6.1513064 15.831046,6.0538096 15.843545,5.9553139 15.849044,5.8565676 15.851669,5.7576959 15.854294,5.6588249 15.854043,5.5598285 15.855043,5.4608324 15.855043,5.4480827 15.854231,5.4380207 15.852262,5.4304111 15.850294,5.4228024 15.847169,5.4176464 15.842544,5.4147089 15.833296,5.4088342 15.818047,5.411834 15.794049,5.4218342 15.699307,5.4623322 15.603379,5.4977684 15.506309,5.5282514 15.457775,5.5434933 15.408955,5.5574965 15.359856,5.5702755 15.310757,5.5830543 15.261379,5.5946085 15.211727,5.6049521 15.162075,5.6152952 15.11215,5.6244278 15.061957,5.6323631 15.011764,5.6402984 14.961305,5.6470363 14.910581,5.652591 14.85986,5.6581452 14.808877,5.6625161 14.757637,5.6657178 14.706398,5.6689184 14.654902,5.6709495 14.603157,5.6718242 14.550787,5.6725745 14.499666,5.6707463 14.449798,5.6663458 14.300192,5.6531456 14.161853,5.6167953 14.034833,5.5574534 13.865474,5.4783318 13.716237,5.3583362 13.587249,5.1978426 13.556501,5.1595938 13.529941,5.1195953 13.507397,5.0780497 13.496124,5.0572772 13.485856,5.0361178 13.476569,5.0145969 13.467283,4.9930766 13.458979,4.9711945 13.451636,4.9489765 13.444293,4.9267585 13.437911,4.9042048 13.432467,4.8813403 13.416139,4.8127472 13.408265,4.7413595 13.408265,4.6678622 13.407265,3.8628924 13.407265,3.0569226 13.407265,2.2519529 13.407015,2.2429532 13.406827,2.2343285 13.407406,2.2262194 13.407984,2.2181105 13.409327,2.210517 13.41214,2.2035797 13.414952,2.1966424 13.419232,2.1903614 13.425685,2.1848772 13.432137,2.1793929 13.440762,2.1747055 13.452261,2.1709554 13.633244,2.113958 13.812228,2.0519603 14.004211,1.9879629z M18.066268,0.89827108L18.074687,0.90157413 18.077308,0.90189981 18.078433,0.9030447 18.079581,0.90349436 18.081305,0.90596581 18.085301,0.91002846 18.086873,0.91393805 18.088246,0.91590548 18.088988,0.9192009 18.090539,0.9230566 18.091941,0.93230057 18.092839,0.93628168 18.092934,0.93885183 18.093318,0.94138145C18.093867,0.94841683 18.094056,0.95640147 18.09393,0.96540117 18.092431,1.1364057 18.092679,1.3076599 18.092805,1.4789141 18.092931,1.6501684 18.092931,1.8214225 18.09093,1.9924265 18.09093,2.0091771 18.091992,2.0229899 18.094664,2.0342399 18.097335,2.0454905 18.101615,2.0541783 18.108052,2.0606782 18.120923,2.0736786 18.142419,2.0779286 18.176913,2.0764286 18.262395,2.0739285 18.348128,2.0741786 18.433986,2.0746786 18.519845,2.0751788 18.605828,2.0759288 18.69181,2.0744287 18.719304,2.0739287 18.739049,2.0764288 18.751422,2.0864288 18.763795,2.0964292 18.768794,2.1139295 18.766795,2.14343 18.764295,2.1849315 18.763545,2.2264325 18.763795,2.2679337 18.764045,2.3094345 18.765294,2.3509355 18.766795,2.3924364 18.767295,2.4041868 18.766608,2.4137495 18.764577,2.4214686 18.762545,2.4291874 18.759171,2.4350626 18.754298,2.4394373 18.749423,2.4438128 18.74305,2.4466879 18.735021,2.4484066 18.726991,2.4501253 18.717305,2.4506878 18.705808,2.4504379 18.528842,2.4484379 18.350879,2.452438 18.173913,2.4484381 18.158416,2.4481879 18.145482,2.4488754 18.134797,2.4510631 18.113425,2.455438 18.101052,2.4658133 18.095179,2.4866886 18.092242,2.4971266 18.09093,2.5101894 18.09093,2.5264396 18.09493,2.9094492 18.092929,3.2924585 18.092929,3.6744682L18.092929,4.7174933C18.092929,4.7684946 18.091929,4.8194959 18.098927,4.8694966 18.104176,4.9081228 18.111285,4.9440613 18.120417,4.9774289 18.12955,5.0107975 18.140708,5.041595 18.154057,5.0699391 18.167407,5.098284 18.182946,5.1241751 18.200843,5.1477304 18.218739,5.1712859 18.238994,5.1925051 18.261771,5.2115049 18.284547,5.2305059 18.309848,5.2472875 18.337836,5.2619677 18.365825,5.2766478 18.396502,5.2892263 18.430034,5.2998199 18.446799,5.3051171 18.46428,5.3099179 18.482493,5.3142371 18.500708,5.318557 18.519658,5.3223951 18.539361,5.3257656 18.559066,5.3291371 18.579524,5.3320415 18.60076,5.3344936 18.621995,5.336946 18.644006,5.3389461 18.666814,5.3405085 18.677062,5.3412585 18.686482,5.3422272 18.6951,5.3435044 18.703717,5.3447821 18.711532,5.3463681 18.71857,5.3483522 18.739682,5.3543057 18.7538,5.3638451 18.761611,5.3793962 18.764212,5.3845801 18.766116,5.3904319 18.767342,5.3970411 18.768569,5.4036508 18.769118,5.4110179 18.769019,5.4192331 18.76892,5.4274483 18.76817,5.436511 18.766795,5.446511 18.760796,5.4995127 18.764794,5.553514 18.766795,5.6065147 18.767045,5.6155152 18.766669,5.6233904 18.765326,5.630172 18.763984,5.6369534 18.76167,5.6426411 18.758046,5.6472661 18.754422,5.6518912 18.749486,5.6554539 18.742892,5.657985 18.7363,5.6605165 18.728053,5.6620166 18.717805,5.6625168 18.657317,5.6652668 18.597016,5.6666417 18.537059,5.6656725 18.417146,5.6637354 18.298608,5.6524227 18.182692,5.6239841 18.153714,5.6168745 18.1249,5.6086946 18.096269,5.5993235 18.067637,5.5899522 18.039189,5.5793896 18.010945,5.5675142 17.784116,5.471262 17.637739,5.3242271 17.559854,5.1354432 17.513123,5.0221729 17.49105,4.893873 17.49105,4.7524946 17.49005,4.2494819 17.49105,3.7464697 17.49105,3.2434572 17.49105,3.0024515 17.48905,2.7624456 17.49205,2.5214395 17.49205,2.493939 17.488801,2.4749386 17.478178,2.4631881 17.472866,2.457313 17.465711,2.4532504 17.456198,2.4508442 17.446684,2.4484379 17.434811,2.4476879 17.420064,2.4484381 17.327083,2.453438 17.234101,2.4484379 17.142119,2.4504379 17.131122,2.4506878 17.121561,2.4502504 17.113438,2.4487037 17.105314,2.4471566 17.098628,2.4445003 17.09338,2.4403128 17.088131,2.436125 17.084319,2.4304062 17.081944,2.4227342 17.07957,2.4150621 17.078632,2.4054368 17.079132,2.3934363L17.079132,2.1284301C17.082131,2.3054344 17.082131,2.2164322 17.079132,2.1284296 17.078133,2.085429 17.096129,2.0734287 17.137121,2.0744287 17.184611,2.0754288 17.232352,2.0749288 17.280092,2.0746786 17.327832,2.0744287 17.375573,2.0744285 17.423063,2.0764286 17.450558,2.0774286 17.467805,2.0734286 17.478178,2.062678 17.483364,2.0573033 17.486832,2.0502407 17.489003,2.0412714L17.49205,2.0084268 17.49055,1.5869168C17.49055,1.4464134 17.49055,1.30591 17.48905,1.1654064 17.48905,1.1519061 17.489987,1.1401558 17.492236,1.1298586 17.494487,1.1195616 17.498048,1.1107177 17.503297,1.1030294 17.513795,1.0876545 17.531042,1.0769041 17.558037,1.0684038 17.710006,1.019403 17.861976,0.96640158 18.011947,0.91039991 18.023944,0.9059 18.03436,0.90248978 18.043359,0.90039349L18.047576,0.90000248 18.05189,0.89874363 18.055856,0.89923525z M30.650016,0.82597208C30.82698,0.82597208 31.003943,0.82597208 31.180905,0.82597208 31.188405,0.82597196 31.194341,0.82709694 31.199012,0.82915926 31.203683,0.83122146 31.207087,0.83422112 31.209525,0.83797073 31.211961,0.8417201 31.213429,0.84621954 31.214227,0.85128164 31.215024,0.85634339 31.215148,0.8619678 31.214898,0.86796665 31.214898,0.87346613 31.214522,0.87852812 31.213555,0.88302755 31.211617,0.89202654 31.207307,0.89877582 31.198871,0.90227509 31.194653,0.9040252 31.189404,0.90496266 31.182906,0.90496254 31.166909,0.90496254 31.150912,0.90496254 31.133916,0.90496254 31.092175,0.9054625 31.060868,0.90583754 31.037389,0.90872717 31.002169,0.91306305 30.984561,0.92305803 30.975755,0.94762325 30.969886,0.96400034 30.967929,0.986853 30.967276,1.0188218 30.96695,1.0348061 30.96695,1.0530696 30.96695,1.0739423L30.96695,1.2259237C30.96695,1.2659187 30.96745,1.3059139 30.967574,1.3459089 30.9677,1.3859042 30.96745,1.4258994 30.965951,1.4658945 30.965701,1.4746434 30.967326,1.4847047 30.968654,1.4948281 30.969981,1.5049523 30.971013,1.5151385 30.969575,1.5241374 30.968858,1.5286368 30.967521,1.5328394 30.965297,1.5365885 30.963073,1.5403386 30.95996,1.5436351 30.955687,1.5463222 30.951415,1.5490094 30.945983,1.5510873 30.939118,1.5523995 30.932256,1.553712 30.923961,1.5542588 30.913962,1.5538839 30.903964,1.5536338 30.895717,1.5525402 30.888934,1.5507511 30.882151,1.5489626 30.876836,1.5464785 30.872704,1.5434479 30.868573,1.5404167 30.865624,1.5368389 30.863576,1.532863 30.861527,1.5288868 30.860379,1.5245124 30.859849,1.5198878 30.858785,1.510639 30.860192,1.5003902 30.8618,1.4903291 30.86341,1.4802676 30.865222,1.4703938 30.864972,1.4618948 30.863473,1.3819046 30.862471,1.3019143 30.862347,1.2217991 30.862222,1.1416838 30.862973,1.0614436 30.864972,0.98095322 30.866971,0.9229604 30.849975,0.8979634 30.787988,0.90496254 30.741998,0.90896201 30.695006,0.90496254 30.649016,0.90496254 30.642018,0.90496266 30.636144,0.90408766 30.63127,0.90236902 30.626395,0.90065062 30.622521,0.89808834 30.619523,0.89471388 30.616523,0.89133918 30.614398,0.88715219 30.613023,0.88218403 30.611649,0.87721586 30.611024,0.87146664 30.611024,0.86496735 30.611024,0.85821807 30.611773,0.85240626 30.61332,0.84748507 30.614867,0.84256387 30.617211,0.83853304 30.620396,0.83534622 30.623584,0.8321588 30.627614,0.82981527 30.632535,0.82826853 30.637456,0.82672203 30.643268,0.82597208 30.650016,0.82597208z M31.420485,0.82572031L31.432755,0.82875347 31.436786,0.82974958C31.452313,0.83602238 31.465258,0.84985709 31.473136,0.87874603 31.51916,1.0428262 31.571187,1.2059056 31.621213,1.3699853 31.623715,1.3784896 31.626716,1.3872439 31.630093,1.3966234 31.633469,1.406003 31.637221,1.4160078 31.641223,1.4270132 31.648476,1.4210102 31.654042,1.4145071 31.658467,1.407707 31.66289,1.4009068 31.666173,1.3938096 31.668862,1.3866189 31.674241,1.3722366 31.677243,1.3574795 31.682244,1.3439729 31.710759,1.2659348 31.739524,1.1881469 31.767539,1.1101085 31.795552,1.0320709 31.822816,0.9537828 31.84833,0.87474394 31.850957,0.86649013 31.854005,0.85958052 31.857411,0.85380411 31.860818,0.84802818 31.864581,0.84338522 31.868638,0.83966494 31.876752,0.83222353 31.886037,0.82847178 31.89598,0.82672119 31.915864,0.82321918 31.938376,0.82772136 31.959388,0.82672071 31.980775,0.8263458 31.991326,0.83230174 31.996215,0.84131765 31.997846,0.84432328 31.998845,0.84766865 31.999408,0.85123253 32.000535,0.85836136 31.999909,0.86636519 31.999064,0.87427521 31.998219,0.88218546 31.997157,0.89000177 31.997407,0.89675474 31.998408,1.0948515 31.997407,1.2919475 31.998408,1.490044 31.998408,1.5178074 31.999534,1.5416315 31.97646,1.5513862 31.972613,1.5530121 31.968097,1.554247 31.962788,1.5550445 31.95748,1.5558416 31.951384,1.5562012 31.944381,1.5560759 31.890351,1.5550756 31.899356,1.5220595 31.899356,1.4910439 31.899356,1.4110054 31.899356,1.3309665 31.899356,1.250302 31.899356,1.1696379 31.899356,1.0883484 31.899356,1.005808 31.893353,1.0088097 31.888726,1.0123739 31.885068,1.0162975 31.88141,1.0202214 31.87872,1.0245047 31.876595,1.0289446 31.872342,1.0378237 31.870343,1.0473284 31.867341,1.0558325 31.816314,1.2029041 31.766288,1.3489752 31.716262,1.4960464 31.710259,1.5130551 31.704755,1.5280625 31.694625,1.5388173 31.684495,1.5495729 31.669738,1.556076 31.645224,1.5560759 31.597201,1.5560761 31.586196,1.5310639 31.575189,1.4960464 31.531167,1.3619816 31.487143,1.2269158 31.44212,1.0928503 31.440369,1.0873477 31.439057,1.0816575 31.437539,1.0758892 31.436023,1.0701207 31.434304,1.0642741 31.431739,1.0584589 31.429175,1.0526434 31.425769,1.0468594 31.420874,1.0412155 31.415982,1.0355726 31.409604,1.0300699 31.401099,1.0248171 31.401099,1.1038558 31.401099,1.1811435 31.400973,1.2575552 31.400849,1.3339679 31.400599,1.4095048 31.4001,1.4850415 31.4001,1.5070522 31.411105,1.5340654 31.385091,1.5510739 31.357327,1.5675818 31.328999,1.5570766 31.316571,1.5296882 31.312428,1.5205588 31.310052,1.5095534 31.310052,1.4970473 31.310052,1.2939485 31.310052,1.0908495 31.310052,0.88775063 31.310052,0.88099718 31.309363,0.87355614 31.309113,0.86625528 31.308364,0.84435451 31.311553,0.8237195 31.349072,0.82672071 31.372084,0.8292222 31.397847,0.82296908 31.420485,0.82572031z M2.6843601,0.73612916C2.4623473,0.78012705 2.3813426,0.95511866 2.3703422,1.1061112 2.3863429,1.1451095 2.3993436,1.1851076 2.4183449,1.2231056 2.5273511,1.4530948 2.8463697,1.4820935 2.9953783,1.2751033 3.0743831,1.1661085 3.0843837,1.0471143 3.02438,0.9261198 2.9563762,0.78912663 2.8323689,0.73912895 2.6843601,0.73612916z M3.7167017,0.19598305C3.7879249,0.19615495 3.859179,0.19765496 3.9304332,0.2001549 4.0014373,0.20215464 4.0714413,0.20915437 4.1424454,0.21315396 4.4194618,0.23715293 4.7004782,0.24815249 4.959493,0.36614668 4.988495,0.37914622 5.0154966,0.39714527 5.0434979,0.41314435 5.3875183,0.57913661 5.5795296,0.9311198 5.5415276,1.3301008 5.5435275,1.6720844 5.5465277,2.015068 5.5455278,2.3570517 5.5445274,2.5650417 5.5585283,2.7740317 5.536527,2.9820216 5.4915243,3.4080013 5.140504,3.7549847 4.7054785,3.769984 4.2774535,3.7849833 3.8494284,3.7729839 3.4204035,3.7719839 3.2383927,3.7869833 3.055382,3.7769837 2.8733713,3.7779834 2.6363575,3.7799835 2.4133444,3.8249815 2.2173331,3.9629748 1.8953141,4.1889641 1.7153036,4.4939494 1.7063031,4.8859308 1.7013028,5.1319189 1.704303,5.3789072 1.7063031,5.6238954 1.7073032,5.6718931 1.6963025,5.6908922 1.6432995,5.6898921 1.4282869,5.6848924 1.2122742,5.6878924 0.99726158,5.6808927 0.86725402,5.6768928 0.74524689,5.6408947 0.63724029,5.567898 0.45222974,5.4729025 0.34022319,5.3149102 0.25021803,5.1379185 0.20621538,5.0499229 0.16821313,4.9589272 0.14821208,4.8619316 0.050206304,4.5149484 -0.012797475,4.1639652 0.0022034645,3.8019826 0.013204098,3.4449996 0.065207124,3.0930164 0.20521557,2.7630321 0.38422585,2.3420523 0.72524571,2.1260627 1.1872727,2.0910642 1.2922789,2.0830647 1.3992851,2.0820648 1.5052913,2.0920641 1.8543117,2.0860646 2.2043322,2.0840647 2.5533524,2.093064 2.9033731,2.0860646 3.2523935,2.0850646 3.6014138,2.093064 3.7374219,2.0810648 3.7374219,2.0810648 3.7384222,1.9470712 3.7384219,1.9240723 3.7414221,1.9000735 3.7434223,1.8760744 3.7144206,1.8540757 3.6804185,1.8630752 3.6484166,1.8630753 3.3543994,1.8610753 2.2203332,1.8590754 1.9473173,1.8580752L1.946047,1.8577433 1.9470316,1.858842C1.941345,1.8593364,1.9377262,1.8583477,1.9357873,1.8559995L1.934827,1.8469158 1.9343163,1.8440762C1.9343164,1.7370813 1.9343164,1.6300864 1.9353167,1.5230912 1.9333164,1.3071018 1.9173154,1.0911121 1.9603178,0.8771224 2.0023204,0.67113221 2.1173271,0.52113938 2.3073381,0.42814374 2.5493524,0.31014943 2.8093676,0.26015186 3.0773834,0.23915303 3.2896457,0.20690441 3.5030332,0.19546747 3.7167017,0.19598305z M20.042851,0L20.056075,0.0016622543 20.059214,0.0035595894 20.061183,0.0039877892 20.062369,0.0054664612 20.065396,0.0072960854 20.067111,0.011371613 20.071484,0.016820908 20.073596,0.026801586 20.075005,0.030153751 20.075242,0.0345788 20.076012,0.038223267C20.07681,0.046754599 20.077021,0.056668043 20.077021,0.067917347 20.075023,0.83286417 20.076022,1.5978111 20.076022,2.3617586L20.076022,2.4597515C20.185521,2.3870064 20.290522,2.3221359 20.399882,2.2680925 20.436334,2.2500785 20.473271,2.2332671 20.511021,2.217768 20.554646,2.2001443 20.598458,2.1835986 20.642465,2.168287 20.686471,2.1529758 20.73067,2.1388987 20.775067,2.1262119 20.819466,2.1135253 20.864064,2.1022293 20.908866,2.0924799 20.998471,2.0729813 21.088897,2.0596697 21.180188,2.053795 21.225835,2.0508578 21.271699,2.0497798 21.317784,2.050717 21.409957,2.052592 21.503018,2.0625288 21.597018,2.0817773 21.752643,2.1140252 21.894908,2.1840985 22.014796,2.2808712 22.054759,2.3131287 22.092236,2.3483528 22.126893,2.3861316 22.144221,2.4050207 22.160844,2.4245487 22.176719,2.4446634 22.224349,2.5050089 22.265256,2.5706381 22.298314,2.6401606 22.342393,2.7328573 22.372517,2.8324754 22.386018,2.9357182 22.396016,3.0157128 22.402017,3.0957072 22.402017,3.1757015 22.402017,3.5676744 22.401767,3.9596473 22.401893,4.3514948 22.402017,4.7433429 22.402516,5.1350658 22.404017,5.5265381 22.404017,5.5945339 22.385016,5.6125326 22.318017,5.610533 22.173016,5.6045332 22.028018,5.6045332 21.884019,5.610533 21.866519,5.6110327 21.852456,5.6099079 21.841206,5.6069233 21.807456,5.5979712 21.799018,5.5722854 21.799018,5.5235388 21.800019,5.1655638 21.800019,4.8073385 21.800019,4.4489884 21.800019,4.0906382 21.800019,3.7321631 21.801019,3.3736877 21.801019,3.3234415 21.799268,3.2736949 21.795096,3.224542 21.793012,3.1999656 21.79032,3.1755376 21.786939,3.1512698 21.783557,3.1270019 21.779487,3.1028942 21.774644,3.0789588 21.769799,3.0550225 21.764182,3.0312586 21.757708,3.0076783 21.751233,2.9840978 21.743901,2.9607009 21.735627,2.9374997 21.727355,2.9142981 21.718139,2.8912919 21.7079,2.8684923 21.697659,2.8456933 21.686393,2.8231011 21.674018,2.800728 21.654017,2.7647304 21.632394,2.7314983 21.609191,2.7010546 21.516377,2.5792821 21.398316,2.5021312 21.258004,2.4711022 21.187848,2.4555875 21.11213,2.4516034 21.031222,2.4593371 20.990769,2.4632042 20.949019,2.4700006 20.90602,2.4797496 20.869145,2.4881244 20.832911,2.4977956 20.797252,2.5086269 20.725932,2.5302894 20.656909,2.5565923 20.58965,2.5864415 20.488765,2.631216 20.39185,2.6839702 20.297116,2.7410131 20.23396,2.7790418 20.171773,2.8189766 20.110022,2.8597237 20.104771,2.8630983 20.100304,2.8666137 20.096503,2.8702523 20.092702,2.8738907 20.08957,2.8776522 20.086991,2.881519 20.081836,2.8892528 20.078896,2.8974085 20.077271,2.9058453 20.075646,2.9142824 20.075335,2.9230006 20.075429,2.9318597 20.075522,2.940718 20.076022,2.9497174 20.076022,2.958717 20.076022,3.8086578 20.075023,4.6595988 20.078023,5.5105398 20.078023,5.520539 20.077725,5.5296633 20.077044,5.5379674 20.075681,5.5545757 20.072778,5.567903 20.067634,5.5783865 20.054772,5.6045957 20.027898,5.6130326 19.976022,5.610533 19.837024,5.6035333 19.698024,5.6055331 19.559024,5.6095326 19.550523,5.6099079 19.542788,5.6099234 19.535762,5.6095326 19.486569,5.6067986 19.472024,5.5841596 19.472024,5.5255387 19.474023,4.4666121 19.473023,3.4076856 19.473023,2.348759 19.473023,1.6498075 19.474023,0.9518559 19.472024,0.25390446 19.472024,0.23840559 19.473212,0.22509396 19.475915,0.2135793 19.478618,0.20206416 19.482837,0.1923461 19.488898,0.18403447 19.494962,0.17572224 19.502868,0.16881645 19.512944,0.16292632 19.523023,0.15703607 19.535273,0.15216136 19.550023,0.14791155 19.626023,0.12641311 19.701774,0.1044147 19.777148,0.081416607 19.852523,0.058417797 19.927522,0.034419537 20.002023,0.0089211464 20.019273,0.0031716824 20.032586,0.00023436546 20.042851,0z" />
  </g>
</svg>

